<svg xmlns="http://www.w3.org/2000/svg" aria-hidden="true" style="position:absolute;width:0;height:0;overflow:hidden"><defs>
<symbol id="icon-arrow" viewBox="0 0 32 32"><path d="M5.293 11.293a.999.999 0 0 1 1.414 0L16 20.586l9.293-9.293a.999.999 0 1 1 1.414 1.414l-10 10a1 1 0 0 1-1.414 0l-10-10a.999.999 0 0 1 0-1.414z"/></symbol><symbol id="icon-eye" viewBox="0 0 33 32"><path stroke-width="2" d="M20.982 16a4.316 4.316 0 1 1-8.631 0 4.316 4.316 0 0 1 8.631 0z"/><path stroke-width="2" d="M28.126 13.822c1.198 1.24 1.198 3.115 0 4.355-2.598 2.689-6.819 6.067-11.46 6.067s-8.862-3.377-11.46-6.067c-1.198-1.24-1.198-3.115 0-4.355 2.598-2.689 6.819-6.067 11.46-6.067s8.862 3.377 11.46 6.067z"/></symbol>



<symbol id="icon-flag" viewBox="0 0 44 32">
<path fill="#fff" d="M4 0h36a4 4 0 0 1 4 4v24a4 4 0 0 1-4 4H4a4 4 0 0 1-4-4V4a4 4 0 0 1 4-4z" style="fill:var(--color2, #fff)"/>
<path fill="#1a47b8" d="M0 0h18.857v14.933H0V0z" style="fill:var(--color3, #1a47b8)"/>
<path  d="M18.857 0v2.133H44V0H18.857zm0 4.267V6.4H44V4.267H18.857zm0 4.266v2.133H44V8.533H18.857zm0 4.267v2.133H44V12.8H18.857zM0 17.067V19.2h44v-2.133H0zm0 4.266v2.133h44v-2.133H0zM0 25.6v2.133h44V25.6H0zm0 4.267V32h44v-2.133H0z" />
<path fill="#fff" d="M2.096 2.133v2.133h2.095V2.133H2.096zm4.19 0v2.133h2.095V2.133H6.286zm4.191 0v2.133h2.095V2.133h-2.095zm4.19 0v2.133h2.095V2.133h-2.095zm-2.095 2.133v2.133h2.095V4.266h-2.095zm-4.191 0v2.133h2.095V4.266H8.381zm-4.19 0v2.133h2.095V4.266H4.191zM2.096 6.399v2.133h2.095V6.399H2.096zm4.19 0v2.133h2.095V6.399H6.286zm4.191 0v2.133h2.095V6.399h-2.095zm4.19 0v2.133h2.095V6.399h-2.095zM2.096 10.666v2.133h2.095v-2.133H2.096zm4.19 0v2.133h2.095v-2.133H6.286zm4.191 0v2.133h2.095v-2.133h-2.095zm4.19 0v2.133h2.095v-2.133h-2.095zm-2.095-2.133v2.133h2.095V8.533h-2.095zm-4.191 0v2.133h2.095V8.533H8.381zm-4.19 0v2.133h2.095V8.533H4.191z" style="fill:#fff "/></symbol></defs></svg>